<svg xmlns="http://www.w3.org/2000/svg" width="340" height="200" viewBox="0 0 340 200" font-family="'Segoe UI', Ubuntu, Sans-Serif">
  <rect x="0.5" y="0.5" width="339" height="199" rx="6" fill="#282c34" stroke="#000000" stroke-opacity="0.00"/>
  <text x="20" y="30" font-size="15" font-weight="600" fill="#e4bf7a">Most Commit Language (all time)</text>
  <rect x="20" y="47" width="10" height="10" fill="#b07219" stroke="#282c34" stroke-width="1"/>
  <text x="36" y="55" font-size="11" fill="#df6d74">Java 56.96%</text>
  <rect x="20" y="67" width="10" height="10" fill="#3178c6" stroke="#282c34" stroke-width="1"/>
  <text x="36" y="75" font-size="11" fill="#df6d74">TypeScript 20.87%</text>
  <rect x="20" y="87" width="10" height="10" fill="#00ADD8" stroke="#282c34" stroke-width="1"/>
  <text x="36" y="95" font-size="11" fill="#df6d74">Go 5.22%</text>
  <rect x="20" y="107" width="10" height="10" fill="#e34c26" stroke="#282c34" stroke-width="1"/>
  <text x="36" y="115" font-size="11" fill="#df6d74">HTML 3.63%</text>
  <rect x="20" y="127" width="10" height="10" fill="#f1e05a" stroke="#282c34" stroke-width="1"/>
  <text x="36" y="135" font-size="11" fill="#df6d74">JavaScript 3.06%</text>
  <rect x="20" y="147" width="10" height="10" fill="#7355dd" stroke="#282c34" stroke-width="1"/>
  <text x="36" y="155" font-size="11" fill="#df6d74">C# 2.96%</text>
  <rect x="20" y="167" width="10" height="10" fill="#e4bf7a" stroke="#282c34" stroke-width="1"/>
  <text x="36" y="175" font-size="11" fill="#df6d74">Other 7.29%</text>
  <path d="M250.00,55.00 A55.00,55.00 0 1 1 226.69,159.82 L237.29,137.17 A30.00,30.00 0 1 0 250.00,80.00 Z" fill="#b07219" stroke="#282c34" stroke-width="1.5"/>
  <path d="M226.69,159.82 A55.00,55.00 0 0 1 195.87,100.27 L220.47,104.69 A30.00,30.00 0 0 0 237.29,137.17 Z" fill="#3178c6" stroke="#282c34" stroke-width="1.5"/>
  <path d="M195.87,100.27 A55.00,55.00 0 0 1 201.90,83.34 L223.76,95.46 A30.00,30.00 0 0 0 220.47,104.69 Z" fill="#00ADD8" stroke="#282c34" stroke-width="1.5"/>
  <path d="M201.90,83.34 A55.00,55.00 0 0 1 209.16,73.16 L227.73,89.90 A30.00,30.00 0 0 0 223.76,95.46 Z" fill="#e34c26" stroke="#282c34" stroke-width="1.5"/>
  <path d="M209.16,73.16 A55.00,55.00 0 0 1 216.96,66.03 L231.98,86.01 A30.00,30.00 0 0 0 227.73,89.90 Z" fill="#f1e05a" stroke="#282c34" stroke-width="1.5"/>
  <path d="M216.96,66.03 A55.00,55.00 0 0 1 225.67,60.67 L236.73,83.09 A30.00,30.00 0 0 0 231.98,86.01 Z" fill="#7355dd" stroke="#282c34" stroke-width="1.5"/>
  <path d="M225.67,60.67 A55.00,55.00 0 0 1 250.00,55.00 L250.00,80.00 A30.00,30.00 0 0 0 236.73,83.09 Z" fill="#e4bf7a" stroke="#282c34" stroke-width="1.5"/>
</svg>