<svg xmlns="http://www.w3.org/2000/svg" width="340" height="200" viewBox="0 0 340 200" font-family="'Segoe UI', Ubuntu, Sans-Serif">
  <rect x="0.5" y="0.5" width="339" height="199" rx="6" fill="#282c34" stroke="#000000" stroke-opacity="0.00"/>
  <text x="20" y="30" font-size="15" font-weight="600" fill="#e4bf7a">Most Commit Language (all time)</text>
  <rect x="20" y="47" width="10" height="10" fill="#b07219" stroke="#282c34" stroke-width="1"/>
  <text x="36" y="55" font-size="11" fill="#df6d74">Java 51.61%</text>
  <rect x="20" y="67" width="10" height="10" fill="#3178c6" stroke="#282c34" stroke-width="1"/>
  <text x="36" y="75" font-size="11" fill="#df6d74">TypeScript 21.93%</text>
  <rect x="20" y="87" width="10" height="10" fill="#3572A5" stroke="#282c34" stroke-width="1"/>
  <text x="36" y="95" font-size="11" fill="#df6d74">Python 8.27%</text>
  <rect x="20" y="107" width="10" height="10" fill="#00ADD8" stroke="#282c34" stroke-width="1"/>
  <text x="36" y="115" font-size="11" fill="#df6d74">Go 4.73%</text>
  <rect x="20" y="127" width="10" height="10" fill="#e34c26" stroke="#282c34" stroke-width="1"/>
  <text x="36" y="135" font-size="11" fill="#df6d74">HTML 3.31%</text>
  <rect x="20" y="147" width="10" height="10" fill="#f1e05a" stroke="#282c34" stroke-width="1"/>
  <text x="36" y="155" font-size="11" fill="#df6d74">JavaScript 2.82%</text>
  <rect x="20" y="167" width="10" height="10" fill="#e4bf7a" stroke="#282c34" stroke-width="1"/>
  <text x="36" y="175" font-size="11" fill="#df6d74">Other 7.32%</text>
  <path d="M250.00,55.00 A55.00,55.00 0 1 1 244.44,164.72 L246.97,139.85 A30.00,30.00 0 1 0 250.00,80.00 Z" fill="#b07219" stroke="#282c34" stroke-width="1.5"/>
  <path d="M244.44,164.72 A55.00,55.00 0 0 1 195.23,115.04 L220.13,112.75 A30.00,30.00 0 0 0 246.97,139.85 Z" fill="#3178c6" stroke="#282c34" stroke-width="1.5"/>
  <path d="M195.23,115.04 A55.00,55.00 0 0 1 199.96,87.18 L222.71,97.55 A30.00,30.00 0 0 0 220.13,112.75 Z" fill="#3572A5" stroke="#282c34" stroke-width="1.5"/>
  <path d="M199.96,87.18 A55.00,55.00 0 0 1 208.84,73.51 L227.55,90.10 A30.00,30.00 0 0 0 222.71,97.55 Z" fill="#00ADD8" stroke="#282c34" stroke-width="1.5"/>
  <path d="M208.84,73.51 A55.00,55.00 0 0 1 217.28,65.80 L232.15,85.89 A30.00,30.00 0 0 0 227.55,90.10 Z" fill="#e34c26" stroke="#282c34" stroke-width="1.5"/>
  <path d="M217.28,65.80 A55.00,55.00 0 0 1 225.58,60.72 L236.68,83.12 A30.00,30.00 0 0 0 232.15,85.89 Z" fill="#f1e05a" stroke="#282c34" stroke-width="1.5"/>
  <path d="M225.58,60.72 A55.00,55.00 0 0 1 250.00,55.00 L250.00,80.00 A30.00,30.00 0 0 0 236.68,83.12 Z" fill="#e4bf7a" stroke="#282c34" stroke-width="1.5"/>
</svg>